{"title":"Once Upon a Time in the West [1968] 720p  BRrip XviD AC3 - CODY","uid":6255137,"size":2857900311,"categoryP":"video","categoryS":"hd___movies","magnet":"?xt=urn:btih:a9a5df2d1bdbabb835b6597c861651a3064f426c&amp;dn=Once+Upon+a+Time+in+the+West+%5B1968%5D+720p++BRrip+XviD+AC3+-+CODY&amp;tr=udp%3A%2F%2Ftracker.openbittorrent.com%3A80&amp;tr=udp%3A%2F%2Fopen.demonii.com%3A1337&amp;tr=udp%3A%2F%2Ftracker.coppersurfer.tk%3A6969&amp;tr=udp%3A%2F%2Fexodus.desync.com%3A6969","seeders":1,"leechers":0,"uploader":"CODYBOSS1969","files":6,"time":1300545723,"description":"General\nComplete name                    : Once Upon a Time in the West [1968] 720p BRrip XviD AC3 - CODY.avi\nFormat                           : AVI\nFormat/Info                      : Audio Video Interleave\nFormat profile                   : OpenDML\nFormat settings                  : rec\nFile size                        : 2.66 GiB\nDuration                         : 2h 45mn\nOverall bit rate                 : 2 305 Kbps\nWriting application              : VirtualDubMod 1.5.10.2 (build 2540/release)\nWriting library                  : VirtualDubMod build 2540/release\n\n\nVideo\nID                               : 0\nFormat                           : MPEG-4 Visual\nFormat profile                   : Advanced Simple@L5\nFormat settings, BVOP            : Yes\nFormat settings, QPel            : No\nFormat settings, GMC             : No warppoints\nFormat settings, Matrix          : Default (H.263)\nMuxing mode                      : Packed bitstream\nCodec ID                         : XVID\nCodec ID/Hint                    : XviD\nDuration                         : 2h 45mn\nBit rate                         : 1 918 Kbps\nWidth                            : 1 280 pixels\nHeight                           : 544 pixels\nDisplay aspect ratio             : 2.35:1\nFrame rate                       : 23.976 fps\nColor space                      : YUV\nChroma subsampling               : 4:2:0\nBit depth                        : 8 bits\nScan type                        : Progressive\nCompression mode                 : Lossy\nBits/(Pixel*Frame)               : 0.115\nStream size                      : 2.21 GiB (83%)\nWriting library                  : XviD 1.2.0.dev47 (UTC 2006-11-01)\n\nAudio\nID                               : 1\nFormat                           : AC-3\nFormat/Info                      : Audio Coding 3\nMode extension                   : CM (complete main)\nCodec ID                         : 2000\nDuration                         : 2h 45mn\nBit rate mode                    : Constant\nBit rate                         : 384 Kbps\nChannel(s)                       : 6 channels\nChannel positions                : Front: L C R, Side: L R, LFE\nSampling rate                    : 48.0 KHz\nBit depth                        : 16 bits\nCompression mode                 : Lossy\nStream size                      : 454 MiB (17%)\nAlignment                        : Aligned on interleaves\nInterleave, duration             : 64 ms (1.53 video frames)\nInterleave, preload duration     : 192 ms\nLanguage                         : English\n\n\n\nIMDB link:                     &lt;a href=&quot; http://www.imdb.com/title/tt0064116/&quot; rel=&quot;nofollow&quot; target=&quot;_NEW&quot;&gt; http://www.imdb.com/title/tt0064116/&lt;/a&gt;\n\n\n\nSubtitles included               : Romanian, English\n\n\n\n\nPlease seed at least 1,5:1 !! This way this torrent has a chance to survive.\n\n\n\nThanks. ENJOY!","torrent":{"xt":"urn:btih:a9a5df2d1bdbabb835b6597c861651a3064f426c","amp;dn":"Once+Upon+a+Time+in+the+West+%5B1968%5D+720p++BRrip+XviD+AC3+-+CODY","amp;tr":["udp%3A%2F%2Ftracker.openbittorrent.com%3A80","udp%3A%2F%2Fopen.demonii.com%3A1337","udp%3A%2F%2Ftracker.coppersurfer.tk%3A6969","udp%3A%2F%2Fexodus.desync.com%3A6969"],"infoHash":"a9a5df2d1bdbabb835b6597c861651a3064f426c","infoHashBuffer":{"type":"Buffer","data":[169,165,223,45,27,219,171,184,53,182,89,124,134,22,81,163,6,79,66,108]},"announce":[],"urlList":[]}}